<?xml version="1.0"?>
<svg xmlns="http://www.w3.org/2000/svg" xmlns:xlink="http://www.w3.org/1999/xlink" xmlns:svgjs="http://svgjs.com/svgjs" version="1.1" width="512" height="512" x="0" y="0" viewBox="0 0 64 64" style="enable-background:new 0 0 512 512" xml:space="preserve"><g><g xmlns="http://www.w3.org/2000/svg"><path d="m59 17h-12.278c-.175-.299-.422-.547-.722-.722v-2.46l2.352-.882c.389-.146.648-.519.648-.936s-.259-.79-.648-.937l-16-6c-.227-.085-.477-.085-.703 0l-16 6c-.39.147-.649.52-.649.937s.259.79.648.937l6.352 2.381v1.682h-17c-2.206 0-4 1.794-4 4v34c0 2.206 1.794 4 4 4h54c2.206 0 4-1.794 4-4v-34c0-2.206-1.794-4-4-4zm-35.095 6c1.787 1.228 4.686 2 8.095 2s6.308-.772 8.095-2h14.032c.362 1.404 1.47 2.511 2.873 2.874v24.253c-1.403.363-2.511 1.47-2.873 2.874h-44.254c-.362-1.405-1.47-2.512-2.873-2.875v-24.252c1.403-.363 2.511-1.47 2.873-2.874zm17.909-2c.12-.322.186-.655.186-1v-1h1.278c.175.299.422.547.722.722v1.278zm2.186-4.722c-.299.175-.547.422-.722.722h-1.278v-1.682l2-.75zm-12-9.21 13.152 4.932-13.152 4.932-13.152-4.932zm-.352 11.869c.114.042.233.063.352.063s.238-.021.352-.063l7.648-2.869v3.932c0 1.223-3.116 3-8 3s-8-1.777-8-3v-3.932zm29.352 36.063c0 1.103-.897 2-2 2h-54c-1.103 0-2-.897-2-2v-34c0-1.103.897-2 2-2h17v1c0 .345.066.678.186 1h-13.186c-.553 0-1 .448-1 1 0 1.103-.897 2-2 2-.553 0-1 .448-1 1v26c0 .552.447 1 1 1 1.103 0 2 .897 2 2 0 .552.447 1 1 1h46c.553 0 1-.448 1-1 0-1.103.897-2 2-2 .553 0 1-.448 1-1v-26c0-.552-.447-1-1-1-1.103 0-2-.897-2-2 0-.552-.447-1-1-1h-9v-1.278c.299-.175.547-.422.722-.722h12.278c1.103 0 2 .897 2 2z" fill="#ffffff" data-original="#000000" style=""/><path d="m9.086 46.594c-.161.362-.093.785.174 1.079.266.293.681.402 1.057.276l2.413-.805 1.563 1.563c.189.19.445.293.707.293.076 0 .153-.009.229-.027.338-.08.609-.328.719-.657l2.052-6.155 2.052 6.155c.109.329.381.577.719.657.076.018.153.027.229.027.262 0 .518-.103.707-.293l1.563-1.563 2.413.805c.377.126.791.017 1.057-.276.267-.293.335-.716.174-1.079l-3.585-8.066c1.04-1.222 1.671-2.802 1.671-4.528 0-3.86-3.141-7-7-7s-7 3.14-7 7c0 1.726.631 3.306 1.671 4.528zm5.477-.445-.856-.856c-.268-.269-.665-.362-1.023-.242l-.849.283 2.415-5.434c.637.406 1.344.711 2.098.894zm8.753-1.098c-.359-.12-.756-.025-1.023.242l-.856.856-1.785-5.354c.755-.184 1.461-.488 2.098-.894l2.415 5.434zm-5.316-16.051c2.757 0 5 2.243 5 5s-2.243 5-5 5-5-2.243-5-5 2.243-5 5-5z" fill="#ffffff" data-original="#000000" style=""/><path d="m30 34h24c.553 0 1-.448 1-1v-4c0-.552-.447-1-1-1h-24c-.553 0-1 .448-1 1v4c0 .552.447 1 1 1zm1-4h22v2h-22z" fill="#ffffff" data-original="#000000" style=""/><path d="m50.341 48.445c-.447-.892-1.344-1.445-2.34-1.445-.001 0-.001 0-.002 0-.587 0-1.14.192-1.585.532l-.444-1.774c-.104-.42-.47-.726-.902-.755-.433-.031-.834.224-.996.626l-2 5 1.857.743.852-2.129.25 1c.102.406.444.706.86.751.425.046.816-.173 1.004-.547l.554-1.107c.104-.21.316-.34.551-.34s.447.13.552.34c.511 1.024 1.541 1.66 2.686 1.66h1.762v-2h-1.762c-.383 0-.726-.212-.897-.555z" fill="#ffffff" data-original="#000000" style=""/><path d="m32 36h14v2h-14z" fill="#ffffff" data-original="#000000" style=""/><path d="m32 40h22v2h-22z" fill="#ffffff" data-original="#000000" style=""/></g></g></svg>
