<?xml version="1.0"?>
<svg xmlns="http://www.w3.org/2000/svg" xmlns:xlink="http://www.w3.org/1999/xlink" xmlns:svgjs="http://svgjs.com/svgjs" version="1.1" width="512" height="512" x="0" y="0" viewBox="0 0 512 512" style="enable-background:new 0 0 512 512" xml:space="preserve"><g><g xmlns="http://www.w3.org/2000/svg"><path d="m428.876 278.95c-4.606-33.393-22.832-61.893-51.342-80.307-4.115-2.995-8.507-5.065-12.062-6.741-6.436-3.03-20.399-7.714-43.621-16.963 13.255-15.289 21.285-35.223 21.285-56.999v-30.82c0-48.038-39.082-87.12-87.12-87.12s-87.12 39.082-87.12 87.12v30.82c0 21.775 8.03 41.71 21.285 56.998-22.693 9.038-37.291 13.981-43.62 16.964-3.555 1.676-7.947 3.746-12.061 6.74-28.51 18.415-46.737 46.915-51.343 80.308-.034.25-.063.5-.084.75-1.157 13.309-2.115 27.603-1.298 41.964.895 15.74 4.321 30.993 10.183 45.334 3.982 9.739 5.523 10.489 20.019 31.418v98.584c0 8.284 6.716 15 15 15h258.081c8.284 0 15-6.716 15-15v-98.583c14.403-20.794 16.017-21.627 20.02-31.42 5.862-14.343 9.288-29.596 10.183-45.332 1.005-17.706-1.092-40.583-1.385-42.715zm-229.98-191.83c0-31.496 25.624-57.12 57.12-57.12s57.12 25.624 57.12 57.12v30.82c0 31.495-25.624 57.119-57.12 57.119s-57.12-25.624-57.12-57.119zm-56.92 354.252c9.377 12.636 16.167 21.841 31.351 25.885v14.743h-31.351zm147.922-143.047c0 18.683-15.199 33.882-33.882 33.882s-33.882-15.199-33.882-33.882v-7.89c0-18.683 15.2-33.883 33.882-33.883s33.882 15.2 33.882 33.883zm-71.785 51.384c22.52 16.656 53.262 16.697 75.84-.024 6.103 6.238 12.376 14.385 14.208 21.848-8.685 12.03-15.86 22.171-18.007 25.749-.055.092-.108.184-.161.275-12.88 22.54-8.792 47.693 9.906 61.36 2.774 2.222 5.732 4.057 8.807 5.524v17.559h-105.379v-17.558c3.074-1.467 6.033-3.302 8.808-5.524 18.698-13.667 22.786-38.82 9.906-61.36-.053-.092-.106-.184-.161-.275-2.147-3.577-9.318-13.714-18-25.739 1.843-7.413 8.125-15.571 14.233-21.835zm120.593 132.291v-14.743c15.367-4.092 21.824-13.047 31.351-25.884v40.627zm61.602-162.038c-1.122 19.727-7.594 36.853-11.464 42.274-15.892 22.073-30.25 45.401-47.081 66.781-4.181 5.31-7.998 10.393-15.514 9.669-5.692-.548-11.898-5.244-13.237-10.899-1.205-5.089.445-10.751 2.949-15.203 4.443-7.279 37.848-52.874 58-80.093 4.93-6.658 3.528-16.052-3.13-20.981s-16.052-3.527-20.981 3.13c-2.197 2.967-11.292 15.261-21.78 29.565-4.652-7.051-10.098-13.054-14.79-17.605 4.229-8.53 6.618-18.126 6.618-28.274v-7.89c0-35.226-28.657-63.883-63.882-63.883s-63.882 28.657-63.882 63.883v7.89c0 10.148 2.39 19.745 6.619 28.274-4.692 4.551-10.138 10.554-14.79 17.605-10.488-14.304-19.583-26.599-21.78-29.566-4.93-6.657-14.323-8.059-20.981-3.13-6.658 4.93-8.06 14.323-3.13 20.981 20.152 27.218 53.555 72.811 58 80.092 3.39 5.553 4.853 13.442 1.09 19.188-4.582 6.996-14.371 9.102-21.105 4.045-10.675-11.108-31.65-44.11-52.835-73.534-1.25-1.75-2.361-3.858-3.496-6.635-9.957-24.362-9.085-46.549-6.8-72.958 3.492-24.564 17.039-45.526 38.176-59.055 3.152-2.01-.66-.228 10.843-5.832 23.543-8.682 41.842-15.816 55.643-21.69 24.171 11.93 52.659 11.944 76.857 0 13.801 5.875 32.1 13.009 55.643 21.691 9.433 4.595 5.461 2.401 10.843 5.832 21.138 13.528 34.685 34.491 38.176 59.056 1.045 12.078 1.903 24.932 1.201 37.272z" fill="#ffffff" data-original="#000000" style=""/></g></g></svg>
